<svg width="80" height="40" viewBox="0 0 80 40" fill="none" xmlns="http://www.w3.org/2000/svg">
<path d="M11.6178 39.1372C6.85967 37.8023 4.48059 34.7293 4.48059 29.9183V25.973C4.48059 23.1842 3.30427 21.7898 0.951631 21.7898V17.6859C3.2514 17.6859 4.42773 16.3708 4.48059 13.7406V9.53755C4.48059 7.09239 5.07536 5.11643 6.2649 3.60968C7.45444 2.10294 9.23875 1.01253 11.6178 0.338454L12.7281 3.53038C11.7236 3.90046 10.9636 4.5481 10.4481 5.47329C9.93265 6.38527 9.66169 7.65412 9.63526 9.27982V13.4432C9.63526 16.4303 8.45233 18.5252 6.08647 19.7279C8.45233 20.9439 9.63526 23.052 9.63526 26.0523V30.2553C9.70135 33.3481 10.7323 35.2382 12.7281 35.9255L11.6178 39.1372ZM27.2206 26.0721C27.2206 25.3716 26.8703 24.8231 26.1698 24.4266C25.4826 24.0169 24.3723 23.6534 22.8391 23.3362C17.7373 22.2656 15.1864 20.098 15.1864 16.8334C15.1864 14.9301 15.9729 13.3441 17.5457 12.0752C19.1317 10.7932 21.2002 10.1521 23.7511 10.1521C26.4738 10.1521 28.648 10.7932 30.2738 12.0752C31.9127 13.3573 32.7321 15.0226 32.7321 17.0713H27.0025C27.0025 16.2518 26.7382 15.5778 26.2095 15.0491C25.6808 14.5072 24.8547 14.2362 23.7313 14.2362C22.7664 14.2362 22.0197 14.4543 21.491 14.8905C20.9623 15.3266 20.698 15.8818 20.698 16.5558C20.698 17.1902 20.9954 17.7057 21.5901 18.1022C22.1981 18.4855 23.2158 18.8226 24.6433 19.1133C26.0707 19.3909 27.2735 19.7081 28.2515 20.065C31.2783 21.1752 32.7916 23.0983 32.7916 25.8342C32.7916 27.7904 31.9523 29.3764 30.2738 30.5924C28.5952 31.7951 26.4276 32.3965 23.7709 32.3965C21.9734 32.3965 20.3741 32.0793 18.9731 31.4449C17.5853 30.7972 16.4949 29.9183 15.7019 28.8081C14.9089 27.6846 14.5124 26.4753 14.5124 25.18H19.9446C19.9975 26.1977 20.3741 26.9775 21.0747 27.5194C21.7752 28.0613 22.7136 28.3323 23.8899 28.3323C24.9869 28.3323 25.813 28.1274 26.3681 27.7177C26.9364 27.2947 27.2206 26.7462 27.2206 26.0721ZM57.8512 35.9255C59.8602 35.2118 60.8911 33.2953 60.944 30.176V25.973C60.944 22.9859 62.1534 20.9109 64.5721 19.7478C62.1534 18.5847 60.944 16.4765 60.944 13.4234V9.27982C60.8911 6.20023 59.8602 4.28376 57.8512 3.53038L58.9615 0.338454C61.3273 0.999309 63.105 2.08311 64.2945 3.58986C65.4841 5.08339 66.0855 7.04613 66.0987 9.47807V13.7406C66.1515 16.3708 67.3279 17.6859 69.6276 17.6859V21.7898C67.275 21.7898 66.0987 23.171 66.0987 25.9334V30.2355C65.9929 34.8615 63.6139 37.8287 58.9615 39.1372L57.8512 35.9255ZM72.7204 12.9476C72.7204 12.0356 73.0244 11.2954 73.6324 10.7271C74.2536 10.1588 75.0268 9.87459 75.952 9.87459C76.8904 9.87459 77.6636 10.1588 78.2716 10.7271C78.8928 11.2954 79.2034 12.0356 79.2034 12.9476C79.2034 13.8463 78.8994 14.5799 78.2915 15.1482C77.6835 15.7033 76.9037 15.9809 75.952 15.9809C75.0136 15.9809 74.2404 15.7033 73.6324 15.1482C73.0244 14.5799 72.7204 13.8463 72.7204 12.9476ZM74.703 39.2364L71.7093 37.6701L72.4231 36.3815C73.3086 34.769 73.7646 33.1631 73.791 31.5638V27.1229H78.6285L78.6087 31.088C78.5954 32.5551 78.2254 34.0354 77.4984 35.529C76.7715 37.0225 75.8397 38.2583 74.703 39.2364Z" fill="white"/>
<path d="M35.6068 21.1157C35.6068 17.7718 36.3536 15.1086 37.8471 13.126C39.3539 11.1434 41.4092 10.1521 44.0129 10.1521C46.1012 10.1521 47.826 10.932 49.1874 12.4916V1.54782H54.9368V32H49.7624L49.4848 29.7201C48.0573 31.5044 46.2202 32.3965 43.9733 32.3965C41.4488 32.3965 39.42 31.4052 37.8868 29.4227C36.3668 27.4269 35.6068 24.6579 35.6068 21.1157ZM41.3365 21.5321C41.3365 23.5411 41.6867 25.0809 42.3872 26.1514C43.0877 27.222 44.1054 27.7573 45.4404 27.7573C47.2115 27.7573 48.4605 27.0105 49.1874 25.517V17.0515C48.4737 15.5579 47.2379 14.8112 45.48 14.8112C42.7176 14.8112 41.3365 17.0515 41.3365 21.5321Z" fill="#67F3AA"/>
</svg>
