<svg width="464" height="88" viewBox="0 0 464 88" fill="none" xmlns="http://www.w3.org/2000/svg">
<path d="M23.752 86.8203C13.2051 83.8613 7.93164 77.0498 7.93164 66.3857V57.6406C7.93164 51.459 5.32422 48.3682 0.109375 48.3682V39.2715C5.20703 39.2715 7.81445 36.3564 7.93164 30.5264V21.21C7.93164 15.79 9.25 11.4102 11.8867 8.07031C14.5234 4.73047 18.4785 2.31348 23.752 0.819336L26.2129 7.89453C23.9863 8.71484 22.3018 10.1504 21.1592 12.2012C20.0166 14.2227 19.416 17.0352 19.3574 20.6387V29.8672C19.3574 36.4883 16.7354 41.1318 11.4912 43.7979C16.7354 46.4932 19.3574 51.166 19.3574 57.8164V67.1328C19.5039 73.9883 21.7891 78.1777 26.2129 79.7012L23.752 86.8203ZM80.749 57.8604C80.749 56.3076 79.9727 55.0918 78.4199 54.2129C76.8965 53.3047 74.4355 52.499 71.0371 51.7959C59.7285 49.4229 54.0742 44.6182 54.0742 37.3818C54.0742 33.1631 55.8174 29.6475 59.3037 26.835C62.8193 23.9932 67.4043 22.5723 73.0586 22.5723C79.0938 22.5723 83.9131 23.9932 87.5166 26.835C91.1494 29.6768 92.9658 33.3682 92.9658 37.9092H80.2656C80.2656 36.0928 79.6797 34.5986 78.5078 33.4268C77.3359 32.2256 75.5049 31.625 73.0146 31.625C70.876 31.625 69.2207 32.1084 68.0488 33.0752C66.877 34.042 66.291 35.2725 66.291 36.7666C66.291 38.1729 66.9502 39.3154 68.2686 40.1943C69.6162 41.0439 71.8721 41.791 75.0361 42.4355C78.2002 43.0508 80.8662 43.7539 83.0342 44.5449C89.7432 47.0059 93.0977 51.2686 93.0977 57.333C93.0977 61.6689 91.2373 65.1846 87.5166 67.8799C83.7959 70.5459 78.9912 71.8789 73.1025 71.8789C69.1182 71.8789 65.5732 71.1758 62.4678 69.7695C59.3916 68.334 56.9746 66.3857 55.2168 63.9248C53.459 61.4346 52.5801 58.7539 52.5801 55.8828H64.6211C64.7383 58.1387 65.5732 59.8672 67.126 61.0684C68.6787 62.2695 70.7588 62.8701 73.3662 62.8701C75.7979 62.8701 77.6289 62.416 78.8594 61.5078C80.1191 60.5703 80.749 59.3545 80.749 57.8604ZM113.005 23.4512L113.4 28.9443C116.799 24.6963 121.354 22.5723 127.067 22.5723C132.106 22.5723 135.856 24.0518 138.317 27.0107C140.778 29.9697 142.038 34.3936 142.097 40.2822V71H129.396V40.5898C129.396 37.8945 128.811 35.9463 127.639 34.7451C126.467 33.5146 124.519 32.8994 121.794 32.8994C118.22 32.8994 115.539 34.4229 113.752 37.4697V71H101.052V23.4512H113.005ZM165.168 71H152.424V23.4512H165.168V71ZM151.677 11.1465C151.677 9.24219 152.307 7.6748 153.566 6.44434C154.855 5.21387 156.599 4.59863 158.796 4.59863C160.964 4.59863 162.692 5.21387 163.981 6.44434C165.271 7.6748 165.915 9.24219 165.915 11.1465C165.915 13.0801 165.256 14.6621 163.938 15.8926C162.648 17.123 160.935 17.7383 158.796 17.7383C156.657 17.7383 154.929 17.123 153.61 15.8926C152.321 14.6621 151.677 13.0801 151.677 11.1465ZM173.693 46.7861C173.693 42.0693 174.602 37.8652 176.418 34.1738C178.234 30.4824 180.842 27.626 184.24 25.6045C187.668 23.583 191.638 22.5723 196.149 22.5723C202.565 22.5723 207.795 24.5352 211.838 28.4609C215.91 32.3867 218.181 37.7188 218.649 44.457L218.737 47.709C218.737 55.0039 216.701 60.8633 212.629 65.2871C208.557 69.6816 203.093 71.8789 196.237 71.8789C189.382 71.8789 183.903 69.6816 179.802 65.2871C175.729 60.8926 173.693 54.916 173.693 47.3574V46.7861ZM186.394 47.709C186.394 52.2207 187.243 55.6777 188.942 58.0801C190.642 60.4531 193.073 61.6396 196.237 61.6396C199.313 61.6396 201.716 60.4678 203.444 58.124C205.173 55.751 206.037 51.9717 206.037 46.7861C206.037 42.3623 205.173 38.9346 203.444 36.5029C201.716 34.0713 199.284 32.8555 196.149 32.8555C193.044 32.8555 190.642 34.0713 188.942 36.5029C187.243 38.9053 186.394 42.6406 186.394 47.709ZM227.219 64.7598C227.219 62.7383 227.893 61.0977 229.24 59.8379C230.617 58.5781 232.331 57.9482 234.382 57.9482C236.462 57.9482 238.176 58.5781 239.523 59.8379C240.9 61.0977 241.589 62.7383 241.589 64.7598C241.589 66.752 240.915 68.3779 239.567 69.6377C238.22 70.8682 236.491 71.4834 234.382 71.4834C232.302 71.4834 230.588 70.8682 229.24 69.6377C227.893 68.3779 227.219 66.752 227.219 64.7598ZM416.096 79.7012C420.549 78.1191 422.834 73.8711 422.951 66.957V57.6406C422.951 51.0195 425.632 46.4199 430.993 43.8418C425.632 41.2637 422.951 36.5908 422.951 29.8232V20.6387C422.834 13.8125 420.549 9.56445 416.096 7.89453L418.557 0.819336C423.801 2.28418 427.741 4.68652 430.378 8.02637C433.015 11.3369 434.348 15.6875 434.377 21.0781V30.5264C434.494 36.3564 437.102 39.2715 442.199 39.2715V48.3682C436.984 48.3682 434.377 51.4297 434.377 57.5527V67.0889C434.143 77.3428 428.869 83.9199 418.557 86.8203L416.096 79.7012ZM449.055 28.7686C449.055 26.7471 449.729 25.1064 451.076 23.8467C452.453 22.5869 454.167 21.957 456.218 21.957C458.298 21.957 460.012 22.5869 461.359 23.8467C462.736 25.1064 463.425 26.7471 463.425 28.7686C463.425 30.7607 462.751 32.3867 461.403 33.6465C460.056 34.877 458.327 35.4922 456.218 35.4922C454.138 35.4922 452.424 34.877 451.076 33.6465C449.729 32.3867 449.055 30.7607 449.055 28.7686ZM453.449 87.04L446.813 83.5684L448.396 80.7119C450.358 77.1377 451.369 73.5781 451.428 70.0332V60.1895H462.15L462.106 68.9785C462.077 72.2305 461.257 75.5117 459.646 78.8223C458.034 82.1328 455.969 84.8721 453.449 87.04Z" fill="white"/>
<path d="M250.773 46.874C250.773 39.4619 252.429 33.5586 255.739 29.1641C259.079 24.7695 263.635 22.5723 269.406 22.5723C274.035 22.5723 277.858 24.3008 280.876 27.7578V3.5H293.62V71H282.15L281.535 65.9463C278.371 69.9014 274.299 71.8789 269.318 71.8789C263.723 71.8789 259.226 69.6816 255.827 65.2871C252.458 60.8633 250.773 54.7256 250.773 46.874ZM263.474 47.7969C263.474 52.25 264.25 55.6631 265.803 58.0361C267.355 60.4092 269.611 61.5957 272.57 61.5957C276.496 61.5957 279.265 59.9404 280.876 56.6299V37.8652C279.294 34.5547 276.555 32.8994 272.658 32.8994C266.535 32.8994 263.474 37.8652 263.474 47.7969ZM325.349 71.8789C318.376 71.8789 312.692 69.7402 308.298 65.4629C303.933 61.1855 301.75 55.4873 301.75 48.3682V47.1377C301.75 42.3623 302.673 38.0996 304.519 34.3496C306.364 30.5703 308.972 27.6699 312.341 25.6484C315.739 23.5977 319.606 22.5723 323.942 22.5723C330.446 22.5723 335.559 24.623 339.279 28.7246C343.029 32.8262 344.904 38.6416 344.904 46.1709V51.3564H314.626C315.036 54.4619 316.267 56.9521 318.317 58.8271C320.397 60.7021 323.02 61.6396 326.184 61.6396C331.076 61.6396 334.899 59.8672 337.653 56.3223L343.894 63.3096C341.989 66.0049 339.411 68.1143 336.159 69.6377C332.907 71.1318 329.304 71.8789 325.349 71.8789ZM323.898 32.8555C321.379 32.8555 319.328 33.7051 317.746 35.4043C316.193 37.1035 315.197 39.5352 314.758 42.6992H332.424V41.6885C332.365 38.876 331.604 36.708 330.139 35.1846C328.674 33.6318 326.594 32.8555 323.898 32.8555ZM369.338 55.4873L378.171 23.4512H391.442L375.402 71H363.273L347.233 23.4512H360.505L369.338 55.4873Z" fill="#67F3AA"/>
</svg>
