<svg width="139" height="27" viewBox="0 0 139 27" fill="none" xmlns="http://www.w3.org/2000/svg">
<path d="M7.13996 3.57348e-06L8.01704 2.41197C7.31355 2.69519 6.83846 3.19312 6.59179 3.90575C6.34511 4.61837 6.22177 5.44063 6.22177 6.37253V9.15452C6.22177 10.0773 6.00707 10.9178 5.57766 11.6761C5.1574 12.4253 4.49045 13.0237 3.57683 13.4714C2.6632 13.9099 1.47092 14.1292 -1.09458e-05 14.1292V11.8543C0.785706 11.8543 1.34758 11.6122 1.68563 11.1279C2.0328 10.6346 2.20639 9.97678 2.20639 9.15452V6.37253C2.20639 5.41323 2.35257 4.51787 2.64493 3.68648C2.94643 2.84594 3.45806 2.11047 4.17982 1.48007C4.90158 0.840538 5.8883 0.347181 7.13996 3.57348e-06ZM8.01704 24.3938L7.13996 26.8194C5.8883 26.4631 4.90158 25.9652 4.17982 25.3257C3.45806 24.6953 2.94643 23.9598 2.64493 23.1193C2.35257 22.2879 2.20639 21.3925 2.20639 20.4332V17.6512C2.20639 17.103 2.12873 16.628 1.97342 16.226C1.82724 15.824 1.58969 15.5133 1.26079 15.2941C0.941022 15.0748 0.520755 14.9652 -1.09458e-05 14.9652V12.6765C1.47092 12.6765 2.6632 12.9004 3.57683 13.348C4.49045 13.7866 5.1574 14.3804 5.57766 15.1296C6.00707 15.8788 6.22177 16.7193 6.22177 17.6512V20.4332C6.22177 21.0545 6.27202 21.63 6.37252 22.16C6.48215 22.6899 6.66488 23.1467 6.92069 23.5304C7.18564 23.9141 7.55109 24.2019 8.01704 24.3938ZM24.8734 17.7609C24.8734 17.4868 24.7866 17.2447 24.613 17.0345C24.4486 16.8244 24.1471 16.6325 23.7085 16.4589C23.2791 16.2853 22.6716 16.1118 21.8858 15.9382C21.1458 15.7829 20.456 15.5819 19.8165 15.3352C19.177 15.0794 18.6196 14.7733 18.1446 14.417C17.6695 14.0515 17.2995 13.6221 17.0345 13.1288C16.7696 12.6263 16.6371 12.0553 16.6371 11.4157C16.6371 10.7945 16.7696 10.2052 17.0345 9.64787C17.3086 9.09056 17.7015 8.5972 18.2131 8.1678C18.7338 7.7384 19.3642 7.40036 20.1043 7.15368C20.8535 6.907 21.7031 6.78366 22.6533 6.78366C23.9598 6.78366 25.0881 6.98923 26.0383 7.40036C26.9884 7.80235 27.7193 8.3688 28.231 9.0997C28.7426 9.82146 28.9984 10.6483 28.9984 11.5802H24.7227C24.7227 11.1965 24.6496 10.863 24.5034 10.5798C24.3572 10.2965 24.1334 10.0773 23.8319 9.92196C23.5304 9.75751 23.1329 9.67528 22.6396 9.67528C22.2559 9.67528 21.9178 9.7438 21.6255 9.88085C21.3422 10.0088 21.1184 10.1869 20.954 10.4153C20.7986 10.6437 20.721 10.9087 20.721 11.2102C20.721 11.4203 20.7667 11.6122 20.858 11.7858C20.9585 11.9502 21.1093 12.1055 21.3103 12.2517C21.5204 12.3887 21.7899 12.5121 22.1188 12.6217C22.4569 12.7314 22.868 12.8364 23.3522 12.9369C24.3846 13.1288 25.3256 13.3983 26.1753 13.7455C27.0341 14.0927 27.7193 14.5723 28.231 15.1844C28.7517 15.7966 29.0121 16.6051 29.0121 17.6101C29.0121 18.2679 28.8614 18.8709 28.5599 19.4191C28.2675 19.9673 27.8427 20.4469 27.2854 20.858C26.7281 21.2692 26.0611 21.5889 25.2845 21.8173C24.508 22.0457 23.6309 22.16 22.6533 22.16C21.2554 22.16 20.0723 21.9087 19.1039 21.4062C18.1354 20.9037 17.4045 20.2733 16.9112 19.515C16.4269 18.7476 16.1848 17.9618 16.1848 17.1579H20.2002C20.2185 17.6512 20.3418 18.0532 20.5702 18.3638C20.8078 18.6745 21.1138 18.9029 21.4884 19.0491C21.863 19.1861 22.2833 19.2546 22.7492 19.2546C23.2152 19.2546 23.6035 19.1907 23.9141 19.0628C24.2247 18.9349 24.4623 18.7613 24.6267 18.542C24.7912 18.3136 24.8734 18.0532 24.8734 17.7609ZM35.5902 10.2235V21.8859H31.3007V7.05775H35.3298L35.5902 10.2235ZM35.0283 13.951L33.9594 13.9784C33.9594 12.8638 34.0964 11.8634 34.3705 10.9772C34.6446 10.091 35.0329 9.33724 35.5354 8.71598C36.047 8.08558 36.6546 7.60592 37.3581 7.27702C38.0707 6.94811 38.8564 6.78366 39.7152 6.78366C40.4096 6.78366 41.0445 6.88416 41.6201 7.08516C42.1957 7.28615 42.6891 7.61049 43.1002 8.05817C43.5205 8.49671 43.8402 9.08143 44.0595 9.81232C44.2788 10.5341 44.3884 11.4249 44.3884 12.4847V21.8859H40.0852V12.471C40.0852 11.8497 39.9984 11.3701 39.8249 11.032C39.6513 10.694 39.3955 10.4564 39.0574 10.3194C38.7285 10.1823 38.3265 10.1138 37.8514 10.1138C37.3489 10.1138 36.9195 10.2143 36.5632 10.4153C36.2069 10.6072 35.9145 10.8767 35.6861 11.2239C35.4577 11.5711 35.2887 11.9776 35.1791 12.4436C35.0786 12.9095 35.0283 13.412 35.0283 13.951ZM51.6928 7.05775V21.8859H47.4034V7.05775H51.6928ZM47.143 3.22053C47.143 2.59926 47.3623 2.0922 47.8008 1.69934C48.2393 1.29735 48.8149 1.09635 49.5275 1.09635C50.2402 1.09635 50.8158 1.29735 51.2543 1.69934C51.702 2.0922 51.9258 2.59926 51.9258 3.22053C51.9258 3.83266 51.702 4.33972 51.2543 4.74171C50.8158 5.13457 50.2402 5.331 49.5275 5.331C48.8149 5.331 48.2393 5.13457 47.8008 4.74171C47.3623 4.33972 47.143 3.83266 47.143 3.22053ZM54.1596 14.6226V14.3348C54.1596 13.2476 54.3149 12.2471 54.6256 11.3335C54.9362 10.4107 55.393 9.61133 55.996 8.93525C56.599 8.25916 57.339 7.73383 58.2161 7.35924C59.0932 6.97552 60.0982 6.78366 61.2311 6.78366C62.3822 6.78366 63.3964 6.97552 64.2734 7.35924C65.1596 7.73383 65.9043 8.25916 66.5072 8.93525C67.1102 9.61133 67.567 10.4107 67.8777 11.3335C68.1883 12.2471 68.3436 13.2476 68.3436 14.3348V14.6226C68.3436 15.7006 68.1883 16.701 67.8777 17.6238C67.567 18.5374 67.1102 19.3369 66.5072 20.0221C65.9043 20.6982 65.1642 21.2235 64.2871 21.5981C63.4101 21.9727 62.4005 22.16 61.2585 22.16C60.1256 22.16 59.116 21.9727 58.2298 21.5981C57.3436 21.2235 56.599 20.6982 55.996 20.0221C55.393 19.3369 54.9362 18.5374 54.6256 17.6238C54.3149 16.701 54.1596 15.7006 54.1596 14.6226ZM58.4491 14.3348V14.6226C58.4491 15.2073 58.4948 15.7554 58.5861 16.2671C58.6866 16.7787 58.8465 17.2264 59.0658 17.6101C59.285 17.9938 59.5728 18.2953 59.9292 18.5146C60.2946 18.7247 60.7377 18.8298 61.2585 18.8298C61.7792 18.8298 62.2178 18.7247 62.5741 18.5146C62.9304 18.2953 63.2182 17.9938 63.4375 17.6101C63.6567 17.2264 63.8121 16.7787 63.9034 16.2671C64.0039 15.7554 64.0542 15.2073 64.0542 14.6226V14.3348C64.0542 13.7592 64.0039 13.2201 63.9034 12.7176C63.8121 12.206 63.6567 11.7538 63.4375 11.3609C63.2182 10.9681 62.9258 10.662 62.5604 10.4427C62.2041 10.2235 61.761 10.1138 61.2311 10.1138C60.7194 10.1138 60.2855 10.2235 59.9292 10.4427C59.5728 10.662 59.285 10.9681 59.0658 11.3609C58.8465 11.7538 58.6866 12.206 58.5861 12.7176C58.4948 13.2201 58.4491 13.7592 58.4491 14.3348ZM70.8241 19.8576C70.8241 19.2364 71.0434 18.7156 71.4819 18.2953C71.9296 17.8751 72.5097 17.6649 73.2224 17.6649C73.9441 17.6649 74.5197 17.8751 74.9491 18.2953C75.3877 18.7156 75.6069 19.2364 75.6069 19.8576C75.6069 20.4697 75.3877 20.9859 74.9491 21.4062C74.5197 21.8265 73.9441 22.0366 73.2224 22.0366C72.5097 22.0366 71.9296 21.8265 71.4819 21.4062C71.0434 20.9859 70.8241 20.4697 70.8241 19.8576ZM130.246 2.41197L131.123 3.57348e-06C132.384 0.347181 133.371 0.840538 134.083 1.48007C134.805 2.11047 135.312 2.84594 135.605 3.68648C135.906 4.51787 136.057 5.41323 136.057 6.37253V9.15452C136.057 9.70269 136.13 10.1778 136.276 10.5798C136.431 10.9818 136.674 11.297 137.002 11.5254C137.331 11.7446 137.756 11.8543 138.277 11.8543V14.1155C136.806 14.1155 135.609 13.8962 134.686 13.4577C133.773 13.0191 133.101 12.4253 132.672 11.6761C132.252 10.9178 132.041 10.0773 132.041 9.15452V6.37253C132.041 5.75127 131.991 5.17568 131.891 4.64578C131.79 4.11588 131.608 3.65907 131.343 3.27535C131.087 2.88249 130.721 2.5947 130.246 2.41197ZM131.123 26.8194L130.246 24.3938C130.721 24.2019 131.087 23.9141 131.343 23.5304C131.608 23.1467 131.79 22.6899 131.891 22.16C131.991 21.63 132.041 21.0545 132.041 20.4332V17.6512C132.041 16.7193 132.252 15.8788 132.672 15.1296C133.101 14.3804 133.773 13.7866 134.686 13.348C135.609 12.9095 136.806 12.6902 138.277 12.6902V14.9652C137.491 14.9652 136.925 15.2118 136.578 15.7052C136.23 16.1894 136.057 16.8381 136.057 17.6512V20.4332C136.057 21.3925 135.906 22.2879 135.605 23.1193C135.312 23.9598 134.805 24.6953 134.083 25.3257C133.371 25.9652 132.384 26.4631 131.123 26.8194Z" fill="white"/>
<path d="M87.5571 18.5694V0.835969H91.8603V21.8859H87.9957L87.5571 18.5694ZM78.3204 14.65V14.3622C78.3204 13.2384 78.4437 12.2152 78.6904 11.2924C78.9462 10.3605 79.3163 9.56108 79.8005 8.89413C80.2938 8.21805 80.9014 7.69728 81.6232 7.33184C82.3449 6.96639 83.1717 6.78366 84.1036 6.78366C84.9624 6.78366 85.7116 6.97552 86.3512 7.35924C86.9907 7.73383 87.5343 8.26373 87.982 8.94895C88.4388 9.62503 88.8088 10.4245 89.092 11.3472C89.3752 12.2608 89.59 13.2521 89.7361 14.3211V14.8144C89.5991 15.8377 89.3844 16.7924 89.092 17.6786C88.8088 18.5648 88.4388 19.346 87.982 20.0221C87.5343 20.689 86.9861 21.2144 86.3374 21.5981C85.6979 21.9727 84.9442 22.16 84.0762 22.16C83.1443 22.16 82.3175 21.9727 81.5957 21.5981C80.8831 21.2235 80.2847 20.6982 79.8005 20.0221C79.3163 19.346 78.9462 18.5511 78.6904 17.6375C78.4437 16.7239 78.3204 15.728 78.3204 14.65ZM82.5962 14.3622V14.65C82.5962 15.2347 82.6373 15.7783 82.7195 16.2808C82.8109 16.7833 82.957 17.2264 83.158 17.6101C83.359 17.9938 83.624 18.2953 83.9529 18.5146C84.2818 18.7247 84.6838 18.8298 85.1589 18.8298C85.7984 18.8298 86.3237 18.6836 86.7349 18.3913C87.146 18.0898 87.4566 17.6741 87.6668 17.1442C87.8769 16.6143 87.9865 15.9976 87.9957 15.2941V13.8551C87.9957 13.2704 87.9363 12.7451 87.8175 12.2791C87.6987 11.8132 87.5206 11.4203 87.2831 11.1005C87.0546 10.7808 86.7669 10.5387 86.4197 10.3742C86.0725 10.2006 85.6614 10.1138 85.1863 10.1138C84.7203 10.1138 84.3229 10.2235 83.994 10.4427C83.6651 10.6529 83.3956 10.9498 83.1854 11.3335C82.9844 11.7172 82.8337 12.1695 82.7332 12.6902C82.6418 13.2019 82.5962 13.7592 82.5962 14.3622ZM101.7 22.16C100.521 22.16 99.4662 21.9727 98.5343 21.5981C97.6024 21.2235 96.8121 20.7073 96.1635 20.0495C95.5239 19.3825 95.0352 18.6151 94.6971 17.7471C94.3591 16.8792 94.19 15.9519 94.19 14.9652V14.4444C94.19 13.3389 94.3454 12.3202 94.656 11.3883C94.9666 10.4564 95.4189 9.64787 96.0127 8.96265C96.6157 8.2683 97.3558 7.73383 98.2328 7.35924C99.1099 6.97552 100.11 6.78366 101.234 6.78366C102.285 6.78366 103.221 6.95725 104.043 7.30443C104.866 7.64247 105.56 8.13126 106.127 8.77079C106.693 9.40119 107.122 10.1641 107.415 11.0594C107.716 11.9456 107.867 12.9415 107.867 14.047V15.8011H95.9168V13.0466H103.673V12.7176C103.673 12.1969 103.578 11.7401 103.386 11.3472C103.203 10.9544 102.929 10.6529 102.563 10.4427C102.207 10.2235 101.755 10.1138 101.207 10.1138C100.686 10.1138 100.252 10.2235 99.9048 10.4427C99.5576 10.662 99.2789 10.9726 99.0688 11.3746C98.8678 11.7675 98.7216 12.2289 98.6303 12.7588C98.5389 13.2795 98.4932 13.8414 98.4932 14.4444V14.9652C98.4932 15.5407 98.5709 16.0661 98.7262 16.5412C98.8815 17.0162 99.1099 17.4228 99.4114 17.7609C99.7129 18.0989 100.078 18.3638 100.508 18.5557C100.937 18.7476 101.426 18.8435 101.974 18.8435C102.65 18.8435 103.294 18.7156 103.906 18.4598C104.519 18.1948 105.048 17.7837 105.496 17.2264L107.497 19.515C107.195 19.9535 106.771 20.3784 106.222 20.7895C105.683 21.1915 105.035 21.5204 104.276 21.7762C103.518 22.032 102.659 22.16 101.7 22.16ZM114.952 18.8572L118.049 7.05775H122.544L117.625 21.8859H114.925L114.952 18.8572ZM112.951 7.05775L116.035 18.8709L116.062 21.8859H113.362L108.443 7.05775H112.951Z" fill="#67F3AA"/>
</svg>
