<svg width="48" height="27" viewBox="0 0 48 27" fill="none" xmlns="http://www.w3.org/2000/svg">
<path d="M7.35921 3.57348e-06L8.12666 2.13788C7.29526 2.43938 6.72881 2.97385 6.42732 3.74129C6.12582 4.4996 5.97507 5.37668 5.97507 6.37253V9.16822C5.97507 10.091 5.76951 10.9269 5.35838 11.6761C4.95638 12.4253 4.31685 13.0237 3.43977 13.4714C2.56269 13.9099 1.41609 14.1292 -2.77013e-05 14.1292V12.0461C0.867915 12.0461 1.48918 11.7858 1.86377 11.265C2.24749 10.7442 2.43935 10.0453 2.43935 9.16822V6.37253C2.43935 5.41323 2.58553 4.51787 2.87789 3.68648C3.17938 2.84594 3.68644 2.11047 4.39907 1.48007C5.12083 0.840538 6.10755 0.347181 7.35921 3.57348e-06ZM8.12666 24.6953L7.35921 26.8468C6.10755 26.4905 5.12083 25.9926 4.39907 25.3531C3.68644 24.7227 3.17938 23.9872 2.87789 23.1467C2.58553 22.3153 2.43935 21.4199 2.43935 20.4606V17.6649C2.43935 17.0802 2.35255 16.5731 2.17897 16.1437C2.01451 15.7143 1.75413 15.3854 1.39782 15.157C1.0415 14.9195 0.575555 14.8007 -2.77013e-05 14.8007V12.7039C1.41609 12.7039 2.56269 12.9278 3.43977 13.3755C4.31685 13.814 4.95638 14.4079 5.35838 15.157C5.76951 15.9062 5.97507 16.7422 5.97507 17.6649V20.4606C5.97507 21.1276 6.03903 21.7443 6.16693 22.3107C6.30398 22.8771 6.52325 23.3659 6.82474 23.7771C7.13538 24.1882 7.56935 24.4943 8.12666 24.6953ZM18.1582 17.7883C18.1582 17.505 18.076 17.2492 17.9116 17.0208C17.7471 16.7924 17.4411 16.5823 16.9934 16.3904C16.5548 16.1894 15.9199 16.0067 15.0885 15.8422C14.3393 15.6778 13.6404 15.4722 12.9917 15.2255C12.3522 14.9697 11.7949 14.6637 11.3198 14.3074C10.8538 13.951 10.4884 13.5308 10.2234 13.0466C9.95847 12.5532 9.826 11.9913 9.826 11.3609C9.826 10.7397 9.95847 10.1549 10.2234 9.60676C10.4975 9.05858 10.8858 8.57436 11.3883 8.1541C11.8999 7.72469 12.5212 7.39122 13.2521 7.15368C13.9921 6.907 14.8235 6.78366 15.7463 6.78366C17.0345 6.78366 18.14 6.98923 19.0627 7.40036C19.9946 7.81149 20.7073 8.37793 21.2006 9.0997C21.7031 9.81232 21.9544 10.6254 21.9544 11.5391H18.0075C18.0075 11.1554 17.9253 10.8127 17.7608 10.5112C17.6055 10.2006 17.3588 9.9585 17.0208 9.78492C16.6919 9.60219 16.2625 9.51083 15.7326 9.51083C15.294 9.51083 14.9149 9.58849 14.5951 9.7438C14.2753 9.88998 14.0287 10.091 13.8551 10.3468C13.6906 10.5935 13.6084 10.8676 13.6084 11.1691C13.6084 11.3975 13.6541 11.603 13.7454 11.7858C13.8459 11.9593 14.0058 12.1192 14.2251 12.2654C14.4444 12.4116 14.7276 12.5486 15.0748 12.6765C15.4311 12.7953 15.8696 12.9049 16.3904 13.0054C17.4593 13.2247 18.4141 13.5125 19.2546 13.8688C20.0951 14.216 20.7621 14.6911 21.2554 15.2941C21.7488 15.8879 21.9955 16.6691 21.9955 17.6375C21.9955 18.2953 21.8493 18.8983 21.5569 19.4465C21.2646 19.9947 20.8443 20.4743 20.2961 20.8854C19.748 21.2874 19.0901 21.6026 18.3227 21.831C17.5644 22.0503 16.7102 22.16 15.76 22.16C14.3804 22.16 13.211 21.9133 12.2517 21.4199C11.3015 20.9266 10.5797 20.3007 10.0864 19.5424C9.60216 18.775 9.36005 17.9893 9.36005 17.1853H13.1013C13.1196 17.7243 13.2567 18.1583 13.5125 18.4872C13.7774 18.8161 14.1109 19.0536 14.5129 19.1998C14.924 19.346 15.3671 19.4191 15.8422 19.4191C16.3538 19.4191 16.7787 19.3506 17.1167 19.2135C17.4548 19.0673 17.7106 18.8755 17.8842 18.6379C18.0669 18.3913 18.1582 18.108 18.1582 17.7883ZM39.3041 2.13788L40.0715 3.57348e-06C41.3323 0.347181 42.319 0.840538 43.0317 1.48007C43.7443 2.11047 44.2468 2.84594 44.5391 3.68648C44.8406 4.51787 44.9914 5.41323 44.9914 6.37253V9.16822C44.9914 9.75294 45.0736 10.26 45.2381 10.6894C45.4025 11.1188 45.6629 11.4523 46.0192 11.6898C46.3847 11.9274 46.8552 12.0461 47.4308 12.0461V14.0744C46.0146 14.0744 44.868 13.8597 43.991 13.4303C43.1139 13.0009 42.4698 12.4162 42.0587 11.6761C41.6475 10.9269 41.442 10.091 41.442 9.16822V6.37253C41.442 5.70558 41.378 5.08889 41.2501 4.52244C41.1313 3.956 40.9166 3.46721 40.606 3.05608C40.2954 2.64494 39.8614 2.33888 39.3041 2.13788ZM40.0715 26.8468L39.3041 24.6953C39.8614 24.4943 40.2954 24.1882 40.606 23.7771C40.9166 23.3659 41.1313 22.8771 41.2501 22.3107C41.378 21.7443 41.442 21.1276 41.442 20.4606V17.6649C41.442 16.7422 41.6475 15.9108 42.0587 15.1707C42.4698 14.4307 43.1139 13.846 43.991 13.4166C44.868 12.978 46.0146 12.7588 47.4308 12.7588V14.8007C46.572 14.8007 45.9507 15.0611 45.567 15.5819C45.1832 16.1026 44.9914 16.797 44.9914 17.6649V20.4606C44.9914 21.4199 44.8406 22.3153 44.5391 23.1467C44.2468 23.9872 43.7443 24.7227 43.0317 25.3531C42.319 25.9926 41.3323 26.4905 40.0715 26.8468Z" fill="white"/>
<path d="M33.3153 18.6516V0.835969H37.2895V21.8859H33.7127L33.3153 18.6516ZM23.9415 14.65V14.3622C23.9415 13.2293 24.0694 12.2015 24.3252 11.2787C24.581 10.3468 24.9556 9.54737 25.449 8.88043C25.9423 8.21348 26.5499 7.69728 27.2716 7.33184C27.9934 6.96639 28.8157 6.78366 29.7384 6.78366C30.6064 6.78366 31.3647 6.96639 32.0134 7.33184C32.6712 7.69728 33.2285 8.21805 33.6853 8.89413C34.1512 9.56108 34.5258 10.3514 34.809 11.265C35.0923 12.1695 35.2978 13.1608 35.4257 14.2388V14.8692C35.2978 15.9016 35.0923 16.8609 34.809 17.7471C34.5258 18.6334 34.1512 19.4099 33.6853 20.0769C33.2285 20.7347 32.6712 21.2463 32.0134 21.6118C31.3555 21.9772 30.5881 22.16 29.711 22.16C28.7883 22.16 27.966 21.9727 27.2442 21.5981C26.5316 21.2235 25.9286 20.6982 25.4353 20.0221C24.951 19.346 24.581 18.5511 24.3252 17.6375C24.0694 16.7239 23.9415 15.728 23.9415 14.65ZM27.8883 14.3622V14.65C27.8883 15.2621 27.934 15.8331 28.0254 16.363C28.1259 16.8929 28.2858 17.3634 28.505 17.7746C28.7334 18.1766 29.0258 18.4918 29.3821 18.7202C29.7476 18.9394 30.1907 19.0491 30.7114 19.0491C31.3875 19.0491 31.9448 18.8983 32.3834 18.5968C32.8219 18.2862 33.1554 17.8614 33.3838 17.3223C33.6213 16.7833 33.7584 16.162 33.7949 15.4585V13.6632C33.7675 13.0877 33.6853 12.5715 33.5482 12.1147C33.4203 11.6487 33.2285 11.2513 32.9727 10.9224C32.726 10.5935 32.4154 10.3377 32.0408 10.1549C31.6753 9.97221 31.2413 9.88085 30.7389 9.88085C30.2272 9.88085 29.7887 9.99962 29.4232 10.2372C29.0578 10.4656 28.7609 10.7808 28.5324 11.1828C28.3132 11.5848 28.1487 12.0598 28.0391 12.608C27.9386 13.1471 27.8883 13.7318 27.8883 14.3622Z" fill="#67F3AA"/>
</svg>
