<svg width="147" height="27" viewBox="0 0 147 27" fill="none" xmlns="http://www.w3.org/2000/svg">
<path d="M7.13996 3.57348e-06L8.01704 2.41197C7.31355 2.69519 6.83846 3.19312 6.59179 3.90575C6.34511 4.61837 6.22177 5.44063 6.22177 6.37253V9.15452C6.22177 10.0773 6.00707 10.9178 5.57766 11.6761C5.1574 12.4253 4.49045 13.0237 3.57683 13.4714C2.6632 13.9099 1.47092 14.1292 -1.09458e-05 14.1292V11.8543C0.785706 11.8543 1.34758 11.6122 1.68563 11.1279C2.0328 10.6346 2.20639 9.97678 2.20639 9.15452V6.37253C2.20639 5.41323 2.35257 4.51787 2.64493 3.68648C2.94643 2.84594 3.45806 2.11047 4.17982 1.48007C4.90158 0.840538 5.8883 0.347181 7.13996 3.57348e-06ZM8.01704 24.3938L7.13996 26.8194C5.8883 26.4631 4.90158 25.9652 4.17982 25.3257C3.45806 24.6953 2.94643 23.9598 2.64493 23.1193C2.35257 22.2879 2.20639 21.3925 2.20639 20.4332V17.6512C2.20639 17.103 2.12873 16.628 1.97342 16.226C1.82724 15.824 1.58969 15.5133 1.26079 15.2941C0.941022 15.0748 0.520755 14.9652 -1.09458e-05 14.9652V12.6765C1.47092 12.6765 2.6632 12.9004 3.57683 13.348C4.49045 13.7866 5.1574 14.3804 5.57766 15.1296C6.00707 15.8788 6.22177 16.7193 6.22177 17.6512V20.4332C6.22177 21.0545 6.27202 21.63 6.37252 22.16C6.48215 22.6899 6.66488 23.1467 6.92069 23.5304C7.18564 23.9141 7.55109 24.2019 8.01704 24.3938ZM24.8734 17.7609C24.8734 17.4868 24.7866 17.2447 24.613 17.0345C24.4486 16.8244 24.1471 16.6325 23.7085 16.4589C23.2791 16.2853 22.6716 16.1118 21.8858 15.9382C21.1458 15.7829 20.456 15.5819 19.8165 15.3352C19.177 15.0794 18.6196 14.7733 18.1446 14.417C17.6695 14.0515 17.2995 13.6221 17.0345 13.1288C16.7696 12.6263 16.6371 12.0553 16.6371 11.4157C16.6371 10.7945 16.7696 10.2052 17.0345 9.64787C17.3086 9.09056 17.7015 8.5972 18.2131 8.1678C18.7338 7.7384 19.3642 7.40036 20.1043 7.15368C20.8535 6.907 21.7031 6.78366 22.6533 6.78366C23.9598 6.78366 25.0881 6.98923 26.0383 7.40036C26.9884 7.80235 27.7193 8.3688 28.231 9.0997C28.7426 9.82146 28.9984 10.6483 28.9984 11.5802H24.7227C24.7227 11.1965 24.6496 10.863 24.5034 10.5798C24.3572 10.2965 24.1334 10.0773 23.8319 9.92196C23.5304 9.75751 23.1329 9.67528 22.6396 9.67528C22.2559 9.67528 21.9178 9.7438 21.6255 9.88085C21.3422 10.0088 21.1184 10.1869 20.954 10.4153C20.7986 10.6437 20.721 10.9087 20.721 11.2102C20.721 11.4203 20.7667 11.6122 20.858 11.7858C20.9585 11.9502 21.1093 12.1055 21.3103 12.2517C21.5204 12.3887 21.7899 12.5121 22.1188 12.6217C22.4569 12.7314 22.868 12.8364 23.3522 12.9369C24.3846 13.1288 25.3256 13.3983 26.1753 13.7455C27.0341 14.0927 27.7193 14.5723 28.231 15.1844C28.7517 15.7966 29.0121 16.6051 29.0121 17.6101C29.0121 18.2679 28.8614 18.8709 28.5599 19.4191C28.2675 19.9673 27.8427 20.4469 27.2854 20.858C26.7281 21.2692 26.0611 21.5889 25.2845 21.8173C24.508 22.0457 23.6309 22.16 22.6533 22.16C21.2554 22.16 20.0723 21.9087 19.1039 21.4062C18.1354 20.9037 17.4045 20.2733 16.9112 19.515C16.4269 18.7476 16.1848 17.9618 16.1848 17.1579H20.2002C20.2185 17.6512 20.3418 18.0532 20.5702 18.3638C20.8078 18.6745 21.1138 18.9029 21.4884 19.0491C21.863 19.1861 22.2833 19.2546 22.7492 19.2546C23.2152 19.2546 23.6035 19.1907 23.9141 19.0628C24.2247 18.9349 24.4623 18.7613 24.6267 18.542C24.7912 18.3136 24.8734 18.0532 24.8734 17.7609ZM35.5902 10.2235V21.8859H31.3007V7.05775H35.3298L35.5902 10.2235ZM35.0283 13.951L33.9594 13.9784C33.9594 12.8638 34.0964 11.8634 34.3705 10.9772C34.6446 10.091 35.0329 9.33724 35.5354 8.71598C36.047 8.08558 36.6546 7.60592 37.3581 7.27702C38.0707 6.94811 38.8564 6.78366 39.7152 6.78366C40.4096 6.78366 41.0445 6.88416 41.6201 7.08516C42.1957 7.28615 42.6891 7.61049 43.1002 8.05817C43.5205 8.49671 43.8402 9.08143 44.0595 9.81232C44.2788 10.5341 44.3884 11.4249 44.3884 12.4847V21.8859H40.0852V12.471C40.0852 11.8497 39.9984 11.3701 39.8249 11.032C39.6513 10.694 39.3955 10.4564 39.0574 10.3194C38.7285 10.1823 38.3265 10.1138 37.8514 10.1138C37.3489 10.1138 36.9195 10.2143 36.5632 10.4153C36.2069 10.6072 35.9145 10.8767 35.6861 11.2239C35.4577 11.5711 35.2887 11.9776 35.1791 12.4436C35.0786 12.9095 35.0283 13.412 35.0283 13.951ZM56.9827 1.91861V21.8859H52.6932V6.79737L48.0612 8.20891V4.89246L56.5579 1.91861H56.9827ZM62.766 14.6226V14.3348C62.766 13.2476 62.9213 12.2471 63.2319 11.3335C63.5425 10.4107 63.9993 9.61133 64.6023 8.93525C65.2053 8.25916 65.9454 7.73383 66.8224 7.35924C67.6995 6.97552 68.7045 6.78366 69.8374 6.78366C70.9886 6.78366 72.0027 6.97552 72.8798 7.35924C73.766 7.73383 74.5106 8.25916 75.1136 8.93525C75.7166 9.61133 76.1734 10.4107 76.484 11.3335C76.7946 12.2471 76.95 13.2476 76.95 14.3348V14.6226C76.95 15.7006 76.7946 16.701 76.484 17.6238C76.1734 18.5374 75.7166 19.3369 75.1136 20.0221C74.5106 20.6982 73.7706 21.2235 72.8935 21.5981C72.0164 21.9727 71.0068 22.16 69.8648 22.16C68.7319 22.16 67.7224 21.9727 66.8361 21.5981C65.9499 21.2235 65.2053 20.6982 64.6023 20.0221C63.9993 19.3369 63.5425 18.5374 63.2319 17.6238C62.9213 16.701 62.766 15.7006 62.766 14.6226ZM67.0554 14.3348V14.6226C67.0554 15.2073 67.1011 15.7554 67.1925 16.2671C67.293 16.7787 67.4528 17.2264 67.6721 17.6101C67.8914 17.9938 68.1792 18.2953 68.5355 18.5146C68.9009 18.7247 69.344 18.8298 69.8648 18.8298C70.3856 18.8298 70.8241 18.7247 71.1804 18.5146C71.5367 18.2953 71.8245 17.9938 72.0438 17.6101C72.2631 17.2264 72.4184 16.7787 72.5097 16.2671C72.6102 15.7554 72.6605 15.2073 72.6605 14.6226V14.3348C72.6605 13.7592 72.6102 13.2201 72.5097 12.7176C72.4184 12.206 72.2631 11.7538 72.0438 11.3609C71.8245 10.9681 71.5322 10.662 71.1667 10.4427C70.8104 10.2235 70.3673 10.1138 69.8374 10.1138C69.3258 10.1138 68.8918 10.2235 68.5355 10.4427C68.1792 10.662 67.8914 10.9681 67.6721 11.3609C67.4528 11.7538 67.293 12.206 67.1925 12.7176C67.1011 13.2201 67.0554 13.7592 67.0554 14.3348ZM79.4305 19.8576C79.4305 19.2364 79.6497 18.7156 80.0883 18.2953C80.5359 17.8751 81.1161 17.6649 81.8287 17.6649C82.5505 17.6649 83.1261 17.8751 83.5555 18.2953C83.994 18.7156 84.2133 19.2364 84.2133 19.8576C84.2133 20.4697 83.994 20.9859 83.5555 21.4062C83.1261 21.8265 82.5505 22.0366 81.8287 22.0366C81.1161 22.0366 80.5359 21.8265 80.0883 21.4062C79.6497 20.9859 79.4305 20.4697 79.4305 19.8576ZM138.853 2.41197L139.73 3.57348e-06C140.99 0.347181 141.977 0.840538 142.69 1.48007C143.412 2.11047 143.919 2.84594 144.211 3.68648C144.512 4.51787 144.663 5.41323 144.663 6.37253V9.15452C144.663 9.70269 144.736 10.1778 144.882 10.5798C145.038 10.9818 145.28 11.297 145.609 11.5254C145.938 11.7446 146.363 11.8543 146.883 11.8543V14.1155C145.412 14.1155 144.216 13.8962 143.293 13.4577C142.379 13.0191 141.708 12.4253 141.278 11.6761C140.858 10.9178 140.648 10.0773 140.648 9.15452V6.37253C140.648 5.75127 140.598 5.17568 140.497 4.64578C140.397 4.11588 140.214 3.65907 139.949 3.27535C139.693 2.88249 139.328 2.5947 138.853 2.41197ZM139.73 26.8194L138.853 24.3938C139.328 24.2019 139.693 23.9141 139.949 23.5304C140.214 23.1467 140.397 22.6899 140.497 22.16C140.598 21.63 140.648 21.0545 140.648 20.4332V17.6512C140.648 16.7193 140.858 15.8788 141.278 15.1296C141.708 14.3804 142.379 13.7866 143.293 13.348C144.216 12.9095 145.412 12.6902 146.883 12.6902V14.9652C146.098 14.9652 145.531 15.2118 145.184 15.7052C144.837 16.1894 144.663 16.8381 144.663 17.6512V20.4332C144.663 21.3925 144.512 22.2879 144.211 23.1193C143.919 23.9598 143.412 24.6953 142.69 25.3257C141.977 25.9652 140.99 26.4631 139.73 26.8194Z" fill="white"/>
<path d="M96.1635 18.5694V0.835969H100.467V21.8859H96.602L96.1635 18.5694ZM86.9267 14.65V14.3622C86.9267 13.2384 87.0501 12.2152 87.2968 11.2924C87.5526 10.3605 87.9226 9.56108 88.4068 8.89413C88.9002 8.21805 89.5077 7.69728 90.2295 7.33184C90.9513 6.96639 91.7781 6.78366 92.71 6.78366C93.5688 6.78366 94.318 6.97552 94.9575 7.35924C95.597 7.73383 96.1406 8.26373 96.5883 8.94895C97.0451 9.62503 97.4151 10.4245 97.6984 11.3472C97.9816 12.2608 98.1963 13.2521 98.3425 14.3211V14.8144C98.2054 15.8377 97.9907 16.7924 97.6984 17.6786C97.4151 18.5648 97.0451 19.346 96.5883 20.0221C96.1406 20.689 95.5925 21.2144 94.9438 21.5981C94.3043 21.9727 93.5505 22.16 92.6826 22.16C91.7507 22.16 90.9238 21.9727 90.2021 21.5981C89.4895 21.2235 88.891 20.6982 88.4068 20.0221C87.9226 19.346 87.5526 18.5511 87.2968 17.6375C87.0501 16.7239 86.9267 15.728 86.9267 14.65ZM91.2025 14.3622V14.65C91.2025 15.2347 91.2436 15.7783 91.3258 16.2808C91.4172 16.7833 91.5634 17.2264 91.7644 17.6101C91.9654 17.9938 92.2303 18.2953 92.5592 18.5146C92.8881 18.7247 93.2901 18.8298 93.7652 18.8298C94.4048 18.8298 94.9301 18.6836 95.3412 18.3913C95.7523 18.0898 96.063 17.6741 96.2731 17.1442C96.4832 16.6143 96.5929 15.9976 96.602 15.2941V13.8551C96.602 13.2704 96.5426 12.7451 96.4239 12.2791C96.3051 11.8132 96.1269 11.4203 95.8894 11.1005C95.661 10.7808 95.3732 10.5387 95.026 10.3742C94.6788 10.2006 94.2677 10.1138 93.7926 10.1138C93.3267 10.1138 92.9292 10.2235 92.6003 10.4427C92.2714 10.6529 92.0019 10.9498 91.7918 11.3335C91.5908 11.7172 91.44 12.1695 91.3395 12.6902C91.2482 13.2019 91.2025 13.7592 91.2025 14.3622ZM110.306 22.16C109.128 22.16 108.073 21.9727 107.141 21.5981C106.209 21.2235 105.418 20.7073 104.77 20.0495C104.13 19.3825 103.641 18.6151 103.303 17.7471C102.965 16.8792 102.796 15.9519 102.796 14.9652V14.4444C102.796 13.3389 102.952 12.3202 103.262 11.3883C103.573 10.4564 104.025 9.64787 104.619 8.96265C105.222 8.2683 105.962 7.73383 106.839 7.35924C107.716 6.97552 108.717 6.78366 109.84 6.78366C110.891 6.78366 111.828 6.95725 112.65 7.30443C113.472 7.64247 114.166 8.13126 114.733 8.77079C115.299 9.40119 115.729 10.1641 116.021 11.0594C116.323 11.9456 116.473 12.9415 116.473 14.047V15.8011H104.523V13.0466H112.28V12.7176C112.28 12.1969 112.184 11.7401 111.992 11.3472C111.809 10.9544 111.535 10.6529 111.17 10.4427C110.813 10.2235 110.361 10.1138 109.813 10.1138C109.292 10.1138 108.858 10.2235 108.511 10.4427C108.164 10.662 107.885 10.9726 107.675 11.3746C107.474 11.7675 107.328 12.2289 107.237 12.7588C107.145 13.2795 107.1 13.8414 107.1 14.4444V14.9652C107.1 15.5407 107.177 16.0661 107.333 16.5412C107.488 17.0162 107.716 17.4228 108.018 17.7609C108.319 18.0989 108.685 18.3638 109.114 18.5557C109.543 18.7476 110.032 18.8435 110.58 18.8435C111.257 18.8435 111.901 18.7156 112.513 18.4598C113.125 18.1948 113.655 17.7837 114.102 17.2264L116.103 19.515C115.802 19.9535 115.377 20.3784 114.829 20.7895C114.29 21.1915 113.641 21.5204 112.883 21.7762C112.124 22.032 111.266 22.16 110.306 22.16ZM123.558 18.8572L126.656 7.05775H131.151L126.231 21.8859H123.531L123.558 18.8572ZM121.558 7.05775L124.641 18.8709L124.669 21.8859H121.969L117.049 7.05775H121.558Z" fill="#67F3AA"/>
</svg>
